<mxfile host="app.diagrams.net" modified="2023-08-16T04:34:56.498Z" agent="Mozilla/5.0 (Windows NT 10.0; Win64; x64) AppleWebKit/537.36 (KHTML, like Gecko) Chrome/115.0.0.0 Safari/537.36" etag="edzfFrtiymCZS21K9RUq" version="21.6.8" type="device">
  <diagram name="Page-1" id="pWssKywSF1shZWfWRFBo">
    <mxGraphModel dx="1708" dy="758" grid="1" gridSize="10" guides="1" tooltips="1" connect="1" arrows="1" fold="1" page="1" pageScale="1" pageWidth="850" pageHeight="1100" math="0" shadow="0">
      <root>
        <mxCell id="0" />
        <mxCell id="1" parent="0" />
        <mxCell id="a9n0QvbPeO1BwiSvSOa0-38" value="" style="whiteSpace=wrap;html=1;aspect=fixed;" vertex="1" parent="1">
          <mxGeometry x="150" y="180" width="630" height="630" as="geometry" />
        </mxCell>
        <mxCell id="a9n0QvbPeO1BwiSvSOa0-22" value="" style="edgeStyle=orthogonalEdgeStyle;rounded=0;orthogonalLoop=1;jettySize=auto;html=1;" edge="1" parent="1" source="a9n0QvbPeO1BwiSvSOa0-2" target="a9n0QvbPeO1BwiSvSOa0-5">
          <mxGeometry relative="1" as="geometry" />
        </mxCell>
        <mxCell id="a9n0QvbPeO1BwiSvSOa0-2" value="User" style="shape=umlActor;verticalLabelPosition=bottom;verticalAlign=top;html=1;outlineConnect=0;" vertex="1" parent="1">
          <mxGeometry x="70" y="230" width="30" height="60" as="geometry" />
        </mxCell>
        <mxCell id="a9n0QvbPeO1BwiSvSOa0-9" value="" style="edgeStyle=orthogonalEdgeStyle;rounded=0;orthogonalLoop=1;jettySize=auto;html=1;" edge="1" parent="1" source="a9n0QvbPeO1BwiSvSOa0-5" target="a9n0QvbPeO1BwiSvSOa0-8">
          <mxGeometry relative="1" as="geometry" />
        </mxCell>
        <mxCell id="a9n0QvbPeO1BwiSvSOa0-11" value="" style="edgeStyle=orthogonalEdgeStyle;rounded=0;orthogonalLoop=1;jettySize=auto;html=1;" edge="1" parent="1" source="a9n0QvbPeO1BwiSvSOa0-8" target="a9n0QvbPeO1BwiSvSOa0-10">
          <mxGeometry relative="1" as="geometry" />
        </mxCell>
        <mxCell id="a9n0QvbPeO1BwiSvSOa0-8" value="Manage Audit through User Interface Application" style="rounded=1;whiteSpace=wrap;html=1;" vertex="1" parent="1">
          <mxGeometry x="320" y="350" width="120" height="60" as="geometry" />
        </mxCell>
        <mxCell id="a9n0QvbPeO1BwiSvSOa0-13" value="" style="edgeStyle=orthogonalEdgeStyle;rounded=0;orthogonalLoop=1;jettySize=auto;html=1;" edge="1" parent="1" source="a9n0QvbPeO1BwiSvSOa0-10" target="a9n0QvbPeO1BwiSvSOa0-12">
          <mxGeometry relative="1" as="geometry" />
        </mxCell>
        <mxCell id="a9n0QvbPeO1BwiSvSOa0-10" value="Finalize numbers" style="rounded=1;whiteSpace=wrap;html=1;" vertex="1" parent="1">
          <mxGeometry x="320" y="450" width="120" height="60" as="geometry" />
        </mxCell>
        <mxCell id="a9n0QvbPeO1BwiSvSOa0-15" value="" style="edgeStyle=orthogonalEdgeStyle;rounded=0;orthogonalLoop=1;jettySize=auto;html=1;" edge="1" parent="1" source="a9n0QvbPeO1BwiSvSOa0-12" target="a9n0QvbPeO1BwiSvSOa0-14">
          <mxGeometry relative="1" as="geometry" />
        </mxCell>
        <mxCell id="a9n0QvbPeO1BwiSvSOa0-12" value="Calculate Final Numbers of Items, and shipping costs" style="rounded=1;whiteSpace=wrap;html=1;" vertex="1" parent="1">
          <mxGeometry x="320" y="550" width="120" height="60" as="geometry" />
        </mxCell>
        <mxCell id="a9n0QvbPeO1BwiSvSOa0-34" value="" style="edgeStyle=orthogonalEdgeStyle;rounded=0;orthogonalLoop=1;jettySize=auto;html=1;" edge="1" parent="1" source="a9n0QvbPeO1BwiSvSOa0-14" target="a9n0QvbPeO1BwiSvSOa0-26">
          <mxGeometry relative="1" as="geometry" />
        </mxCell>
        <mxCell id="a9n0QvbPeO1BwiSvSOa0-14" value="Final Check of company books" style="rounded=1;whiteSpace=wrap;html=1;" vertex="1" parent="1">
          <mxGeometry x="320" y="660" width="120" height="60" as="geometry" />
        </mxCell>
        <mxCell id="a9n0QvbPeO1BwiSvSOa0-5" value="Conducts Warehouse Audit" style="rounded=1;whiteSpace=wrap;html=1;" vertex="1" parent="1">
          <mxGeometry x="320" y="250" width="120" height="60" as="geometry" />
        </mxCell>
        <mxCell id="a9n0QvbPeO1BwiSvSOa0-24" value="" style="endArrow=none;dashed=1;html=1;rounded=0;" edge="1" parent="1">
          <mxGeometry width="50" height="50" relative="1" as="geometry">
            <mxPoint x="550" y="390" as="sourcePoint" />
            <mxPoint x="450" y="390" as="targetPoint" />
          </mxGeometry>
        </mxCell>
        <mxCell id="a9n0QvbPeO1BwiSvSOa0-25" value="Select warehouse and item, and item information" style="rounded=1;whiteSpace=wrap;html=1;" vertex="1" parent="1">
          <mxGeometry x="565" y="360" width="120" height="60" as="geometry" />
        </mxCell>
        <mxCell id="a9n0QvbPeO1BwiSvSOa0-26" value="System Admin" style="shape=umlActor;verticalLabelPosition=bottom;verticalAlign=top;html=1;outlineConnect=0;" vertex="1" parent="1">
          <mxGeometry x="180" y="890" width="30" height="60" as="geometry" />
        </mxCell>
        <mxCell id="a9n0QvbPeO1BwiSvSOa0-30" value="" style="endArrow=none;dashed=1;html=1;rounded=0;" edge="1" parent="1">
          <mxGeometry width="50" height="50" relative="1" as="geometry">
            <mxPoint x="450" y="580" as="sourcePoint" />
            <mxPoint x="550" y="580" as="targetPoint" />
          </mxGeometry>
        </mxCell>
        <mxCell id="a9n0QvbPeO1BwiSvSOa0-31" value="Notify System Admin of Final Calculation" style="rounded=1;whiteSpace=wrap;html=1;" vertex="1" parent="1">
          <mxGeometry x="565" y="550" width="120" height="60" as="geometry" />
        </mxCell>
        <mxCell id="a9n0QvbPeO1BwiSvSOa0-41" value="&lt;h1&gt;Inventory Audit Workflow&lt;/h1&gt;&lt;div&gt;&lt;br&gt;&lt;/div&gt;&lt;div&gt;&lt;br&gt;&lt;/div&gt;" style="text;html=1;strokeColor=none;fillColor=none;spacing=5;spacingTop=-20;whiteSpace=wrap;overflow=hidden;rounded=0;" vertex="1" parent="1">
          <mxGeometry x="310" y="190" width="340" height="50" as="geometry" />
        </mxCell>
        <mxCell id="a9n0QvbPeO1BwiSvSOa0-42" value="&lt;h1&gt;Inventory Audit Use Case Diagram&lt;/h1&gt;&lt;div&gt;Derek Charron&lt;/div&gt;&lt;div&gt;8/16/2023&lt;/div&gt;" style="text;html=1;strokeColor=none;fillColor=none;spacing=5;spacingTop=-20;whiteSpace=wrap;overflow=hidden;rounded=0;" vertex="1" parent="1">
          <mxGeometry x="230" y="40" width="430" height="120" as="geometry" />
        </mxCell>
      </root>
    </mxGraphModel>
  </diagram>
</mxfile>
